<?xml version="1.0" encoding="UTF-8"?>
<svg width="250px" height="71px" viewBox="0 0 250 71" version="1.1" xmlns="http://www.w3.org/2000/svg" xmlns:xlink="http://www.w3.org/1999/xlink">
    <!-- Generator: Sketch 52.2 (67145) - http://www.bohemiancoding.com/sketch -->
    <title>Group</title>
    <desc>Created with Sketch.</desc>
    <g id="Page-1" stroke="none" stroke-width="1" fill="none" fill-rule="evenodd">
        <g id="Group">
            <path d="M12.6080074,63.6834264 C13.5130399,63.6834264 14.4809073,62.8412561 15.5116387,61.1568901 C16.5423701,59.4725242 17.2588434,57.4739408 17.6610801,55.1610801 L5.29236499,25.8985102 C2.82866552,25.0940369 1.16946424,24.1387392 0.314711359,23.0325885 L1.0689013,17.2253259 L18.41527,17.2253259 L19.16946,23.0325885 C18.5158254,23.8370618 17.4096912,24.5661047 15.8510242,25.2197393 L19.9990689,36.6080074 C20.9041014,38.9711478 21.5325867,41.3091132 21.8845438,43.6219739 L22.1108007,44.6778399 L23.1666667,44.6778399 C23.5689033,42.1638608 24.2728069,39.5242224 25.2783985,36.7588454 L29.2756052,25.5968343 C27.4152607,24.8929201 26.1080112,24.0381801 25.3538175,23.0325885 L26.1080074,17.2253259 L42.7001862,17.2253259 L43.4543762,23.0325885 C42.5493437,24.1890188 40.8901424,25.1694559 38.4767225,25.9739292 L26.0325885,55.3873371 C23.6694481,60.9683705 21.8594104,64.5633067 20.6024209,66.1722533 C18.3901193,69.1387485 15.3105411,70.6219739 11.363594,70.6219739 C7.41664693,70.6219739 4.41248703,69.591258 2.35102421,67.5297952 C2.30074463,67.0269993 2.27560521,66.5242111 2.27560521,66.0214153 C2.27560521,63.2560383 2.85381172,60.6415393 4.01024209,58.1778399 L10.2700186,58.1778399 C11.0242123,59.5353885 11.4515824,61.3705657 11.5521415,63.6834264 L12.6080074,63.6834264 Z M46.094041,22.8063315 C46.094041,22.0521378 46.1191804,21.2476765 46.16946,20.3929236 C50.845461,17.8789446 55.8733437,16.6219739 61.2532588,16.6219739 C66.633174,16.6219739 70.492074,17.6401202 72.8300745,19.6764432 C75.168075,21.7127662 76.3370577,25.0940173 76.3370577,29.820298 L76.3370577,45.8845438 C78.0968431,46.2365008 79.4795108,46.6638709 80.4851024,47.1666667 L80.4851024,53.7281192 C77.9208438,54.9348291 74.2504894,55.538175 69.4739292,55.538175 C68.9711334,54.2309059 68.5437634,52.6471229 68.1918063,50.7867784 C66.0297843,53.954392 62.1080359,55.538175 56.4264432,55.538175 C53.0577113,55.538175 50.1792484,54.5577379 47.7909683,52.5968343 C45.4026882,50.6359306 44.2085661,47.9711528 44.2085661,44.6024209 C44.2085661,41.2336889 45.32727,38.5814808 47.5647114,36.6457169 C49.8021527,34.7099531 53.133125,33.7420857 57.5577281,33.7420857 L65.7783985,33.7420857 L65.7783985,30.1219739 C65.7783985,26.2001666 63.6918272,24.2392924 59.518622,24.2392924 C57.959955,24.2392924 56.6778449,24.3901288 55.6722533,24.6918063 C55.5716941,26.8035487 55.2700211,28.4376106 54.7672253,29.594041 L47.3761639,29.594041 C46.521411,27.8342556 46.094041,25.5717084 46.094041,22.8063315 Z M59.66946,47.8454376 C62.2337186,47.8454376 64.2700111,47.0912552 65.7783985,45.5828678 L65.7783985,39.3985102 L60.4990689,39.3985102 C56.8789391,39.3985102 55.0689013,40.781178 55.0689013,43.5465549 C55.0689013,44.8035445 55.4585622,45.8342604 56.2378957,46.6387337 C57.0172292,47.443207 58.1610725,47.8454376 59.66946,47.8454376 Z M83.9543762,17.2253259 C86.7197531,16.6219709 89.208555,16.320298 91.4208566,16.320298 C93.6331582,16.320298 95.4683354,16.3705768 96.9264432,16.4711359 L96.9264432,20.2420857 C98.1331531,19.236494 99.641518,18.381754 101.451583,17.6778399 C103.261648,16.9739257 104.89571,16.6219739 106.353818,16.6219739 C112.08569,16.6219739 115.906881,18.0549205 117.817505,20.9208566 C119.074494,19.7141467 120.733695,18.6960004 122.795158,17.8663873 C124.856621,17.0367743 126.767217,16.6219739 128.527002,16.6219739 C134.057756,16.6219739 137.778389,17.8663749 139.689013,20.3552142 C141.599637,22.8440534 142.554935,27.5074146 142.554935,34.3454376 L142.554935,46.5633147 C144.515838,47.3175084 145.898506,48.1722485 146.70298,49.1275605 L145.94879,54.9348231 L128.602421,54.9348231 L127.848231,49.1275605 C128.552145,48.1722485 129.934813,47.3175084 131.996276,46.5633147 L131.996276,31.6303538 C131.996276,28.8649769 131.619184,27.0297997 130.864991,26.1247672 C130.110797,25.2197348 128.615002,24.7672253 126.377561,24.7672253 C124.140119,24.7672253 122.015839,25.596826 120.004655,27.2560521 C120.256053,28.9655579 120.38175,31.3286628 120.38175,34.3454376 L120.38175,46.5633147 C122.342654,47.3175084 123.725322,48.1722485 124.529795,49.1275605 L123.775605,54.9348231 L106.429236,54.9348231 L105.675047,49.1275605 C106.378961,48.1722485 107.761628,47.3175084 109.823091,46.5633147 L109.823091,31.6303538 C109.823091,28.8649769 109.446,27.0297997 108.691806,26.1247672 C107.937613,25.2197348 106.454387,24.7672253 104.242086,24.7672253 C102.029784,24.7672253 99.9180734,25.5716866 97.9068901,27.1806331 L97.9068901,46.5633147 C99.8677938,47.3175084 101.250462,48.1722485 102.054935,49.1275605 L101.300745,54.9348231 L83.9543762,54.9348231 L83.2001862,49.1275605 C83.9041004,48.1722485 85.2867681,47.3175084 87.3482309,46.5633147 L87.3482309,25.5968343 C85.5884456,24.9934793 84.2057778,24.1387392 83.2001862,23.0325885 L83.9543762,17.2253259 Z" id="yam" fill="#6AAC47"></path>
            <path d="M149.389199,1.38733706 C152.204856,0.733702505 154.819355,0.40689013 157.232775,0.40689013 C159.646195,0.40689013 161.682487,0.482308371 163.341713,0.633147114 L163.341713,46.5633147 C165.302617,47.3175084 166.685285,48.1722485 167.489758,49.1275605 L166.735568,54.9348231 L149.389199,54.9348231 L148.635009,49.1275605 C149.338923,48.1722485 150.721591,47.3175084 152.783054,46.5633147 L152.783054,9.75884544 C151.023269,9.15549047 149.640601,8.30075041 148.635009,7.19459963 L149.389199,1.38733706 Z M188.682495,55.538175 C182.648946,55.538175 178.111282,53.9292526 175.069367,50.7113594 C172.027452,47.4934662 170.506518,42.8175353 170.506518,36.6834264 C170.506518,32.9627374 171.034445,29.7574622 172.090317,27.0675047 C173.146188,24.3775471 174.579134,22.3035455 176.389199,20.8454376 C179.90877,18.0297811 184.006494,16.6219739 188.682495,16.6219739 C193.358496,16.6219739 196.940863,17.8160961 199.429702,20.2043762 C201.918541,22.5926563 203.162942,26.8789262 203.162942,33.0633147 C203.162942,36.6834445 201.378044,38.4934823 197.808194,38.4934823 L181.442272,38.4934823 C181.64339,41.6610959 182.460421,43.8985037 183.893389,45.2057728 C185.326357,46.5130419 187.601474,47.1666667 190.718808,47.1666667 C192.428314,47.1666667 194.062376,46.9655514 195.621043,46.5633147 C197.17971,46.1610781 198.310983,45.7588474 199.014898,45.3566108 L200.070764,44.7532588 L202.333333,50.7867784 C202.031656,51.1387355 201.591716,51.5786752 201.013501,52.1066108 C200.435286,52.6345464 198.9772,53.33845 196.639199,54.2183426 C194.301199,55.0982353 191.648991,55.538175 188.682495,55.538175 Z M193.433892,31.7811918 C193.534451,31.0772777 193.58473,30.2225376 193.58473,29.216946 C193.58473,28.2113544 193.182499,27.1429293 192.378026,26.0116387 C191.573553,24.8803482 190.178315,24.3147114 188.192272,24.3147114 C186.206228,24.3147114 184.685294,24.9180573 183.629423,26.1247672 C182.573552,27.3314772 181.869648,29.3677697 181.517691,32.2337058 L193.433892,31.7811918 Z M229.635009,26.5018622 C225.813761,26.5018622 223.174123,27.2309052 221.716015,28.689013 L221.716015,45.9599628 C225.788661,46.7141565 228.579136,47.7700118 230.087523,49.1275605 L229.333333,54.9348231 L207.763501,54.9348231 L207.009311,49.1275605 C207.713225,48.1722485 209.095893,47.3175084 211.157356,46.5633147 L211.157356,25.5968343 C209.39757,24.9934793 208.014903,24.1387392 207.009311,23.0325885 L207.763501,17.2253259 C210.528878,16.6219709 213.01768,16.320298 215.229981,16.320298 C217.442283,16.320298 219.27746,16.3705768 220.735568,16.4711359 L220.735568,21.2225326 C221.891998,19.8649839 223.375224,18.74628 225.185289,17.8663873 C226.995354,16.9864947 228.641985,16.5465549 230.125233,16.5465549 C231.60848,16.5465549 232.626627,16.672252 233.179702,16.9236499 L232.953445,26.7281192 C231.947853,26.5772804 230.841719,26.5018622 229.635009,26.5018622 Z M243.361266,55.689013 C239.188061,55.689013 237.10149,53.7909873 237.10149,49.994879 C237.10149,46.1987706 239.200631,44.3007449 243.398976,44.3007449 C247.597321,44.3007449 249.696462,46.1987706 249.696462,49.994879 C249.696462,53.7909873 247.584751,55.689013 243.361266,55.689013 Z" id="ler." fill="#304D1F"></path>
        </g>
    </g>
</svg>